<svg height="60" width="52" xmlns="http://www.w3.org/2000/svg"><path d="M21 46h10a1 1 0 100-2H21a1 1 0 100 2zm0-6h16a1 1 0 100-2H21a1 1 0 100 2zm-1-7a1 1 0 001 1h18a1 1 0 100-2H21a1 1 0 00-1 1zm1-5h14a1 1 0 100-2H21a1 1 0 100 2zm0-6h16a1 1 0 100-2H21a1 1 0 100 2zm-6 22h-2a1 1 0 100 2h2a1 1 0 100-2zm0-6h-2a1 1 0 100 2h2a1 1 0 100-2zm0-6h-2a1 1 0 100 2h2a1 1 0 100-2zm0-6h-2a1 1 0 100 2h2a1 1 0 100-2zm-2-4h2a1 1 0 100-2h-2a1 1 0 100 2zm3-12h20V6h-5.101a.999.999 0 01-.979-.801A4.01 4.01 0 0026 2a4.01 4.01 0 00-3.92 3.199.999.999 0 01-.979.801H16v4zm-2 1V5a1 1 0 011-1h5.343c.835-2.36 3.096-4 5.657-4a6.021 6.021 0 015.657 4H37a1 1 0 011 1v6a1 1 0 01-1 1H15a1 1 0 01-1-1zm12-7c-1.103 0-2 .897-2 2s.897 2 2 2 2-.897 2-2-.897-2-2-2zm15 52a.997.997 0 00.707-.293l6-6A.997.997 0 0048 49V9a1 1 0 00-1-1h-6a1 1 0 100 2h5v38.586l-5.707 5.707A.999.999 0 0041 56zM11 8H5a1 1 0 00-1 1v43c0 2.206 1.794 4 4 4h29a1 1 0 001-1v-6c0-.453.446-1 1-1h4a1 1 0 100-2h-4c-1.598 0-3 1.402-3 3v5H8c-1.103 0-2-.897-2-2V10h5a1 1 0 100-2zm41 1v46c0 2.57-2.43 5-5 5H5c-2.57 0-5-2.43-5-5V9c0-2.57 2.43-5 5-5h6a1 1 0 110 2H5C3.542 6 2 7.542 2 9v46c0 1.458 1.542 3 3 3h42c1.458 0 3-1.542 3-3V9c0-1.458-1.542-3-3-3h-6a1 1 0 110-2h6c2.57 0 5 2.43 5 5z" fill-rule="evenodd"/></svg>