<svg xmlns="http://www.w3.org/2000/svg" width="512" height="512"><path d="M256 0C114.844 0 0 114.844 0 256s114.844 256 256 256c23.188 0 46.156-3.094 70.469-10 49.25-21.781 76.125-75.531 64.219-127.969l.5-.5c7.5-7.469 10.875-21.875 7.531-31.938l-1.438-4.375c-3.375-10.062-14.5-20.562-24.75-23.375L334.688 303.5c-10.25-2.781-24.875.969-32.405 8.5l-13.688 13.688c-49.75-13.469-88.781-52.5-102.219-102.25l13.688-13.688c7.5-7.5 11.25-22.125 8.469-32.406L198.219 139.5c-2.781-10.25-13.344-21.375-23.406-24.75l-4.313-1.438c-10.094-3.375-24.5.031-32 7.563l-20.5 20.5c-3.656 3.625-6 14.031-6 14.063-.688 65.063 24.813 127.719 70.813 173.75 45.875 45.875 108.313 71.345 173.156 70.781.156 0 2.531-.531 5.344-1.375.188 31.469-17.655 60.875-45.562 73.344C296.406 477.281 276.312 480 256 480 132.5 480 32 379.5 32 256S132.5 32 256 32s224 100.5 224 224c0 36.812-8.75 72.031-26.031 104.625-4.125 7.812-1.125 17.5 6.656 21.625 7.844 4.188 17.5 1.156 21.625-6.625C501.719 338.875 512 297.5 512 256 512 114.844 397.156 0 256 0z"/></svg>