<svg xmlns="http://www.w3.org/2000/svg" aria-label="OK.ru" viewBox="0 0 512 512"><rect width="512" height="512" rx="15%" fill="#EE8208"/><path d="M256 137a36.5 36.5 0 0136.5 36.5A36.5 36.5 0 01256 210a36.5 36.5 0 01-36.5-36.5A36.5 36.5 0 01256 137zm0 124.5c48.6 0 88-39.5 88-88s-39.5-88-88-88-88 39.5-88 88 39.5 88 88 88m35.6 71.9a164.8 164.8 0 0051-21 25.8 25.8 0 008-35.6 25.8 25.8 0 00-35.6-8 111.9 111.9 0 01-118.6 0 25.8 25.8 0 00-35.6 8 25.8 25.8 0 008 35.6c15.9 10 33 17 51 21l-49 49.3a25.8 25.8 0 0036.5 36.5l48.4-48.5 48.4 48.4a25.8 25.8 0 0036.5 0 25.8 25.8 0 000-36.5l-49.3-49.3" fill="#fff"/></svg>